<?xml version="1.0" encoding="utf-8"?>
<!-- Generator: Adobe Illustrator 24.1.1, SVG Export Plug-In . SVG Version: 6.00 Build 0)  -->
<svg version="1.1" id="Capa_1" xmlns="http://www.w3.org/2000/svg" xmlns:xlink="http://www.w3.org/1999/xlink" x="0px" y="0px"
	 viewBox="0 0 283.5 283.5" style="enable-background:new 0 0 283.5 283.5;" xml:space="preserve">
<style type="text/css">
	.st0{fill:#0202FF;}
	.st1{fill:#FE0057;}
</style>
<g>
	<path class="st0" d="M252.8,80.6c9.2-23,9.1-40.1-0.3-49.6c-11.5-11.5-34.6-9-65,6.9l-0.9,0.4c-13.9-6-29.1-9.2-44.9-9.2
		c-62.3,0-113,50.7-113,112.9c0,15.9,3.2,31.3,9.4,45.3l-0.3,0.5C22,218.3,19.5,241.3,31,252.8c4.5,4.5,11,6.8,19.2,6.8
		c7.6,0,16.7-1.9,27-5.9c5.9-2.2,12.1-5,18.5-8.4c14.5,6.4,29.9,9.7,45.9,9.7c62.3,0,113-50.7,113-113c0-15.7-3.2-30.9-9.4-45.2
		C248.2,91.2,250.7,85.8,252.8,80.6z M245.4,142c0,57.2-46.5,103.8-103.8,103.8c-12.3,0-24.2-2.1-35.5-6.2
		c11.9-7,24.4-15.6,37.2-25.6c2-1.6,2.4-4.4,0.8-6.5c-1.6-2-4.4-2.4-6.5-0.8c-15.4,12-30.4,21.9-44,29.2c0,0-0.1,0-0.1,0
		c-26.6,14.2-47.8,18.7-56.2,10.3c-7.5-7.5-5.4-25.5,5.7-48.6c7.5,13.3,17.9,25.2,30.6,34.8c0.8,0.6,1.8,0.9,2.8,0.9
		c1.4,0,2.8-0.6,3.7-1.8c1.5-2,1.1-4.9-0.9-6.5c-13.9-10.4-24.6-23.8-31.7-38.9c0,0,0,0,0-0.1c-0.2-0.4-0.4-0.8-0.6-1.3
		c-6-13.2-9.1-27.7-9.1-42.8c0-57.2,46.5-103.7,103.7-103.7c14.9,0,29.3,3.1,42.4,9c0.5,0.2,0.9,0.4,1.4,0.6c0,0,0,0,0.1,0
		c15.2,7.1,28.7,17.9,39.2,31.9c1.5,2,4.4,2.4,6.5,0.9c2-1.5,2.4-4.4,0.9-6.4c-9.7-12.9-21.7-23.3-35.2-30.9
		c23.3-11.3,41.4-13.5,49-5.9c13.9,14-5.6,60.5-45.4,108.1L184.1,165c-1.7,1.9-1.4,4.8,0.5,6.5c0.9,0.7,1.9,1.1,3,1.1
		c1.3,0,2.6-0.6,3.5-1.6l16.4-19.4c12.6-15,23.3-30.1,31.8-44.4C243.4,118.3,245.4,130,245.4,142z"/>
	<path class="st1" d="M196.9,83.2c-11.6-11.6-29.9,3.1-39.7,13c-3.1,3.1-4.9,4.9-7,7c-0.9,0.9-1.9,1.9-3.1,3.1l-2.9,2.9
		c0,0-0.1,0.1-0.1,0.1l-47.7-3.6c-0.2,0-0.4,0-0.5,0c-3.7,0.1-7.1,1.7-9.7,4.3l-7.8,7.8c-1.7,1.7-2.4,4.3-1.7,6.7
		c0.7,2.3,2.5,4,4.7,4.6l32,11.2l-17,17l-15.8-3.1c-3.9-0.8-7.9,0.4-10.8,3.3l-5.5,5.5c-1.7,1.7-2.4,4-2.2,6.3
		c0.2,2.3,1.5,4.4,3.4,5.7l31.7,22.2c0.1,0,0.1,0.1,0.1,0.1c1.6,1.1,3.4,1.6,5.2,1.6c2.4,0,4.8-0.9,6.6-2.7l10.1-10.1
		c6.2-6.2,13.8-13.8,20.1-20.2l9.3,28.3c0.6,2.3,2.3,4.1,4.6,4.7c0.6,0.2,1.3,0.3,1.9,0.3c1.8,0,3.5-0.7,4.7-2l7.8-7.8
		c2.6-2.6,4.1-6.1,4.2-9.8v-0.4l-2.3-43.7c0-0.1,0.1-0.2,0.2-0.3c11.8-11.9,18.7-18.8,22.7-22.8c2.8-2.8,4.2-4.2,5-5
		C204.8,99.9,204.5,90.8,196.9,83.2z M87.8,121.3l5-5c0.9-0.9,2.1-1.5,3.4-1.6l39.6,2.9l-15,15L87.8,121.3z M191.2,100.5l-5.1,5.1
		c-4,4-10.8,10.9-22.7,22.8c-1.8,1.8-2.8,4.1-2.9,6.5v0.4l2.3,43.8c-0.1,1.3-0.6,2.5-1.5,3.4l-4.9,4.9l-10.2-31.1
		c-0.8-2.4-3.4-3.7-5.8-2.9c-0.4,0.1-0.7,0.3-1,0.5c-0.9,0.1-1.9,0.6-2.6,1.3c-6.8,6.8-16.5,16.5-23.9,24l-10.1,10.1
		c0,0.1-0.1,0.1-0.2,0L72.2,168l4.3-4.2c0.6-0.6,1.5-0.9,2.4-0.7l16.3,3.2c2.7,0.5,5.5-0.3,7.4-2.2l21.2-21.3
		c0.2-0.2,0.4-0.5,0.6-0.7v0c0.2-0.1,0.4-0.2,0.5-0.4l0.5-0.5l0.2-0.2l25.3-25.3l2.9-2.9c1.2-1.2,2.2-2.2,3.1-3.1
		c2.1-2.1,3.9-3.9,6.9-7c12.2-12.2,22.5-17.2,26.7-13C195.6,94.9,193.3,98.3,191.2,100.5z"/>
	<path class="st0" d="M124.9,141.6l-1.1,1.1c0.2-0.2,0.4-0.5,0.6-0.7v0C124.5,141.9,124.7,141.8,124.9,141.6z"/>
</g>
</svg>
